<svg xmlns="http://www.w3.org/2000/svg" width="20" height="19" viewBox="0 0 20 19">
  <g fill="none" fill-rule="evenodd" transform="translate(-5 -5)">
    <path stroke="#4F46B3" stroke-linecap="round" stroke-linejoin="round" stroke-width="2" d="M12,9 L12,6 L18,6 L18,9 L22.0049107,9 C23.1067681,9 24,9.89706013 24,11.0058587 L24,20.9941413 C24,22.1019465 23.1073772,23 22.0049107,23 L7.99508929,23 C6.8932319,23 6,22.1029399 6,20.9941413 L6,11.0058587 C6,9.89805351 6.8926228,9 7.99508929,9 L12,9 Z M15,18 C16.1045695,18 17,17.1045695 17,16 C17,14.8954305 16.1045695,14 15,14 C13.8954305,14 13,14.8954305 13,16 C13,17.1045695 13.8954305,18 15,18 Z"/>
    <rect width="30" height="30"/>
  </g>
</svg>
