<svg xmlns="http://www.w3.org/2000/svg" width="166" height="48" viewBox="0 0 166 48">
  <g fill="none" fill-rule="evenodd">
    <text fill="#000" font-family="Bariol-Regular, Bariol" font-size="56" letter-spacing="-2">
      <tspan x="66.708" y="44">Linkr</tspan>
    </text>
    <g fill="#673AB7">
      <path fill-rule="nonzero" d="M24.7076063,31.6960764 C24.7076063,31.6960764 24.6947209,31.8958759 24.6882781,31.9989982 C24.6045225,33.6747358 24.3983548,35.2666866 23.921592,36.8844179 C23.1484632,39.4882564 21.8212587,41.608709 19.5405286,43.1362083 C15.0950378,46.1138652 9.00020554,45.3984541 5.46314113,41.0802071 C4.20680678,39.5398175 3.42723521,37.8060736 3.16952559,35.8403045 C2.51236609,30.7808658 5.33428633,26.2692645 10.1147996,24.3550565 C10.7268599,24.110141 11.345363,23.884561 11.9703088,23.7234324 L14.0126575,23.3367237 C16.4480133,23.0144664 18.9155828,23.1369242 21.3509387,23.3109431 C23.8636074,23.4914071 26.3956043,23.6718712 28.908273,23.8201095 C31.2985296,23.9554576 33.6501298,23.8587804 35.9888446,23.2722722 C38.5272842,22.6342029 40.640503,21.4031802 42.2705163,19.1280442 C46.0008629,13.9268124 43.5139652,6.46333475 37.4771176,4.47178503 C32.728818,2.89916971 27.7614652,5.14208008 25.6353609,9.61501053 C24.7269346,11.5227734 24.4112403,13.6110003 24.2823855,15.6992272 C24.2630573,16.002149 24.2501718,16.1632776 24.2372863,16.4790897 C25.2487965,16.5693217 26.2925204,16.5693217 27.3104734,16.6595537 C27.3169161,16.5177605 27.3104734,16.6917794 27.3169161,16.5886571 C27.3749008,15.2867379 27.4973129,13.9654832 27.8323354,12.7022349 C28.2833272,11.0007166 29.0693415,9.45388191 30.5060726,8.3582073 C33.572817,6.01861976 38.2502464,6.92738517 40.0993129,10.304641 C41.9870358,13.7463483 40.814457,17.60699 37.2516217,19.4954174 C35.6473793,20.3461765 34.0044806,20.6168726 32.2198415,20.7199949 C31.214774,20.7780012 30.1581646,20.7780012 29.1595399,20.7393303 C27.742137,20.6426532 26.1443374,20.5975372 24.7204918,20.50086 C22.7039141,20.3655119 20.6937791,20.1850479 18.6707587,20.101261 C15.9197086,19.9916936 13.1879867,20.1528222 10.527135,20.9391298 C5.9850031,22.2926102 2.68632007,25.1026933 0.914566498,29.5498432 C-1.48213288,35.5567181 0.985436641,42.6721579 6.51975054,46.0042977 C13.7098487,50.3289898 22.7683415,47.3384427 26.1636656,39.7976233 C27.2782597,37.3226877 27.6454959,34.660843 27.7614652,31.9796628 L27.7807934,31.7154118 C27.7807934,31.7154118 25.6740174,31.6187347 24.7204918,31.5349478 L24.7076063,31.6960764 Z"/>
      <path fill-rule="nonzero" d="M23.2952214,16.3062427 C23.2952214,16.3062427 23.3081087,16.1064309 23.3145524,16.0033022 C23.3983203,14.3274608 23.6045182,12.7354116 24.0813507,11.1175801 C24.8545927,8.51358048 26.1819914,6.39299663 28.4630553,4.86540279 C32.9091967,1.88756163 39.004921,2.60301697 42.542503,6.92153121 C43.7990212,8.46201614 44.5787069,10.1958674 44.8364542,12.1617582 C45.4937099,17.2215099 42.6713767,21.7333905 37.8901638,23.6477169 C37.2780139,23.8926476 36.6594203,24.1182416 36.034383,24.2793802 L33.9917354,24.6661128 C31.5560232,24.98839 29.0880926,24.8659247 26.6523803,24.691895 C24.1393439,24.5114198 21.6069764,24.3309446 19.09394,24.1826971 C16.7033335,24.0473406 14.3513891,24.1440238 12.0123321,24.7305683 C9.47352098,25.3686771 7.3599929,26.5997759 5.72974106,28.8750528 C1.9988485,34.0830521 4.4861102,41.5469916 10.5238413,43.532219 C15.2728358,45.0984861 20.2409156,42.8489914 22.367331,38.3822297 C23.2758903,36.4743488 23.5916308,34.3859926 23.7205045,32.2976365 C23.7398355,31.9946959 23.7527229,31.8335574 23.7656103,31.5177257 C22.753952,31.4274881 21.7100753,31.4274881 20.6919734,31.3372505 C20.6855297,31.4790525 20.6919734,31.3050228 20.6855297,31.4081515 C20.6275365,32.7101513 20.5051066,34.0314877 20.170035,35.2948143 C19.7189772,36.9964378 18.9328479,38.5433683 17.4959065,39.6391107 C14.4287133,41.978843 9.75059935,41.0700214 7.90126228,37.6925565 C6.01326311,34.2506362 7.18601345,30.3897556 10.7493702,28.5012113 C12.3538474,27.6503995 13.9969866,27.3796867 15.7818868,27.276558 C16.7871014,27.2185481 17.8438654,27.2185481 18.8426363,27.2572214 C20.2602466,27.3539045 21.85828,27.3990233 23.282334,27.4957065 C25.2992068,27.6310629 27.309636,27.8115381 29.3329525,27.8953302 C32.0844052,28.0049044 34.8165269,27.8437658 37.477768,27.0574095 C42.014121,25.7102909 45.3132868,22.9000339 47.0852997,18.4526088 C49.4823498,12.4453621 47.0144191,5.32948193 41.4792953,1.99713587 C34.3010322,-2.32782391 25.23477,0.656462795 21.838949,8.20419439 C20.7241918,10.6792831 20.3569019,13.3412927 20.2409156,16.0226388 L20.2215845,16.2869061 C20.2215845,16.2869061 22.3286689,16.3835893 23.282334,16.4673813 L23.2952214,16.3062427 Z"/>
    </g>
  </g>
</svg>
