<svg xmlns="http://www.w3.org/2000/svg" width="36" height="36" viewBox="0 0 36 36">
  <g fill="#FFF" fill-rule="evenodd">
    <path fill-rule="nonzero" d="M18.5307048,23.7720573 C18.5307048,23.7720573 18.5210406,23.9219069 18.5162086,23.9992486 C18.4533919,25.2560519 18.2987661,26.4500149 17.941194,27.6633134 C17.3613474,29.6161923 16.365944,31.2065317 14.6553965,32.3521562 C11.3212784,34.5853989 6.75015416,34.0488406 4.09735585,30.8101553 C3.15510508,29.6548632 2.5704264,28.3545552 2.3771442,26.8802283 C1.88427456,23.0856494 4.00071475,19.7019484 7.58609971,18.2662924 C8.04514495,18.0826058 8.50902225,17.9134207 8.97773161,17.7925743 L10.5094931,17.5025428 C12.33601,17.2608498 14.1866871,17.3526931 16.013204,17.4832073 C17.8977055,17.6185554 19.7967032,17.7539034 21.6812047,17.8650821 C23.4738972,17.9665932 25.2375974,17.8940853 26.9916334,17.4542042 C28.8954632,16.9756522 30.4803773,16.0523852 31.7028872,14.3460331 C34.5006472,10.4451093 32.6354739,4.84750106 28.1078382,3.35383877 C24.5466135,2.17437728 20.8210989,3.85656006 19.2265207,7.21125789 C18.5452009,8.64208003 18.3084302,10.2082502 18.2117891,11.7744204 C18.1972929,12.0016117 18.1876288,12.1224582 18.1779647,12.3593173 C18.9365974,12.4269913 19.7193903,12.4269913 20.4828551,12.4946653 C20.4876871,12.3883204 20.4828551,12.5188346 20.4876871,12.4414928 C20.5311756,11.4650534 20.6229847,10.4741124 20.8742515,9.52667614 C21.2124954,8.25053748 21.8020061,7.09041143 22.8795544,6.26865548 C25.1796127,4.51396482 28.6876848,5.19553888 30.0744846,7.72848076 C31.4902768,10.3097612 30.6108428,13.2052425 27.9387162,14.6215631 C26.7355345,15.2596324 25.5033604,15.4626544 24.1648811,15.5399962 C23.4110805,15.5835009 22.6186235,15.5835009 21.8696549,15.5544978 C20.8066028,15.4819899 19.6082531,15.4481529 18.5403689,15.375645 C17.0279356,15.274134 15.5203344,15.1387859 14.003069,15.0759458 C11.9397815,14.9937702 9.89099004,15.1146166 7.89535124,15.7043474 C4.48875232,16.7194577 2.01474006,18.82702 0.685924873,22.1623824 C-1.11159966,26.6675386 0.739077481,32.0041184 4.8898129,34.5032233 C10.2823865,37.7467424 17.0762561,35.503832 19.6227492,29.8482175 C20.4586948,27.9920158 20.7341219,25.9956322 20.8210989,23.9847471 L20.8355951,23.7865589 C20.8355951,23.7865589 19.255513,23.714051 18.5403689,23.6512108 L18.5307048,23.7720573 Z"/>
    <path fill-rule="nonzero" d="M17.471416,12.2296821 C17.471416,12.2296821 17.4810816,12.0798232 17.4859143,12.0024766 C17.5487402,10.7455956 17.7033886,9.55155867 18.061013,8.33818508 C18.6409445,6.38518536 19.6364936,4.79474747 21.3472915,3.64905209 C24.6818975,1.41567122 29.2536907,1.95226273 31.9068773,5.19114841 C32.8492659,6.3465121 33.4340302,7.64690053 33.6273407,9.12131864 C34.1202824,12.9161325 32.0035325,16.3000429 28.4176228,17.7357877 C27.9585104,17.9194857 27.4945652,18.0886812 27.0257873,18.2095352 L25.4938016,18.4995846 C23.6670174,18.7412925 21.8160694,18.6494435 19.9892852,18.5189213 C18.1045079,18.3835648 16.2052323,18.2482084 14.320455,18.1370228 C12.5275001,18.0355055 10.7635419,18.1080178 9.00924911,18.5479262 C7.10514073,19.0265078 5.51999467,19.9498319 4.29730579,21.6562896 C1.49913637,25.5622891 3.36458265,31.1602437 7.892881,32.6491643 C11.4546269,33.8238646 15.1806867,32.1367436 16.7754983,28.7866723 C17.4569177,27.3557616 17.6937231,25.7894945 17.7903784,24.2232274 C17.8048766,23.996022 17.8145422,23.875168 17.8242077,23.6382943 C17.065464,23.5706161 16.2825565,23.5706161 15.51898,23.5029379 C15.5141473,23.6092893 15.51898,23.4787671 15.5141473,23.5561136 C15.4706524,24.5326135 15.3788299,25.5236158 15.1275263,26.4711107 C14.7892329,27.7473284 14.1996359,28.9075262 13.1219299,29.729333 C10.821535,31.4841323 7.31294952,30.802516 5.92594671,28.2694174 C4.50994734,25.6879772 5.38951009,22.7923167 8.06202768,21.3759085 C9.26538552,20.7377996 10.4977399,20.534765 11.8364151,20.4574185 C12.590326,20.4139111 13.3828991,20.4139111 14.1319772,20.442916 C15.195185,20.5154284 16.39371,20.5492675 17.4617505,20.6217799 C18.9744051,20.7232972 20.482227,20.8586536 21.9997144,20.9214976 C24.0633039,21.0036783 26.1123952,20.8828244 28.108326,20.2930571 C31.5105907,19.2827182 33.9849651,17.1750254 35.3139747,13.8394566 C37.1117623,9.33402158 35.2608144,3.99711145 31.1094715,1.4978519 C25.7257742,-1.74586793 18.9260775,0.492347096 16.3792117,6.15314579 C15.5431438,8.00946236 15.2676764,10.0059695 15.1806867,12.0169791 L15.1661884,12.2151796 C15.1661884,12.2151796 16.7465017,12.2876919 17.4617505,12.350536 L17.471416,12.2296821 Z"/>
  </g>
</svg>
